<svg width="70" height="64" viewBox="0 0 70 64" fill="none" xmlns="http://www.w3.org/2000/svg">
<path d="M69.8552 62.3609C69.8569 62.219 69.8762 62.1714 69.898 62.2551C69.9198 62.3387 69.9184 62.4547 69.8948 62.5129C69.8713 62.5711 69.8534 62.5027 69.8552 62.3609ZM8.96616 60.3682C9.02824 60.3433 9.10238 60.3463 9.13094 60.3749C9.1595 60.4035 9.1087 60.4238 9.01812 60.42C8.91801 60.416 8.89757 60.3955 8.96616 60.3681V60.3682ZM10.1642 60.3699C10.2233 60.3461 10.32 60.3461 10.3791 60.3699C10.4382 60.3938 10.3898 60.4133 10.2716 60.4133C10.1534 60.4133 10.1051 60.3938 10.1642 60.3699ZM37.6752 60.3681C37.7372 60.3433 37.8113 60.3463 37.8399 60.3749C37.8685 60.4035 37.8177 60.4238 37.7271 60.42C37.627 60.416 37.6066 60.3955 37.6752 60.3681ZM38.9645 60.3681C39.0265 60.3433 39.1007 60.3463 39.1292 60.3749C39.1578 60.4035 39.1071 60.4238 39.0164 60.42C38.9163 60.416 38.8959 60.3955 38.9645 60.3681ZM62.3389 60.3699C62.398 60.3461 62.4947 60.3461 62.5538 60.3699C62.6129 60.3938 62.5645 60.4133 62.4464 60.4133C62.3281 60.4133 62.2798 60.3938 62.3389 60.3699ZM63.5476 60.3681C63.6096 60.3433 63.6838 60.3463 63.7123 60.3749C63.741 60.4035 63.6902 60.4238 63.5995 60.42C63.4994 60.416 63.479 60.3955 63.5476 60.3681ZM67.3243 60.3699C67.3834 60.3461 67.4801 60.3461 67.5392 60.3699C67.5982 60.3938 67.5499 60.4133 67.4317 60.4133C67.3136 60.4133 67.2652 60.3938 67.3243 60.3699ZM68.533 60.3681C68.5951 60.3433 68.6692 60.3463 68.6978 60.3749C68.7263 60.4035 68.6755 60.4238 68.585 60.42C68.4848 60.416 68.4644 60.3955 68.533 60.3681ZM1.65472 60.2213C1.52018 60.1192 1.50632 59.9488 1.52353 58.6123L1.54281 57.1176L1.56866 58.5744C1.59 59.7753 1.61913 60.0585 1.73466 60.1861C1.89892 60.3676 1.86636 60.3819 1.65472 60.2213ZM5.02843 60.3084C5.02843 60.2906 5.09612 60.2229 5.17883 60.158C5.31518 60.0511 5.31821 60.0542 5.21132 60.1905C5.09902 60.3336 5.02843 60.3792 5.02843 60.3084ZM13.8708 60.1905C13.7639 60.0542 13.767 60.0511 13.9033 60.158C13.986 60.2229 14.0537 60.2906 14.0537 60.3084C14.0537 60.3792 13.9831 60.3336 13.8708 60.1905ZM22.9931 60.3084C22.9931 60.2906 23.0607 60.2229 23.1435 60.158C23.2798 60.0511 23.2828 60.0542 23.1759 60.1905C23.0636 60.3336 22.9931 60.3792 22.9931 60.3084ZM25.9853 60.2822C26.0474 60.2574 26.1215 60.2604 26.1501 60.289C26.1787 60.3175 26.1279 60.3378 26.0373 60.3341C25.9372 60.33 25.9167 60.3096 25.9853 60.2822ZM34.1511 60.2822C34.2131 60.2574 34.2872 60.2604 34.3158 60.289C34.3444 60.3175 34.2936 60.3378 34.203 60.3341C34.1029 60.33 34.0825 60.3096 34.1511 60.2822ZM50.6491 60.284C50.7081 60.2601 50.8048 60.2601 50.864 60.284C50.9231 60.3079 50.8747 60.3273 50.7565 60.3273C50.6383 60.3273 50.59 60.3079 50.6491 60.284ZM54.2697 60.1905C54.1628 60.0542 54.1659 60.0512 54.3021 60.158C54.3849 60.223 54.4526 60.2906 54.4526 60.3085C54.4526 60.3792 54.382 60.3336 54.2697 60.1905ZM56.3326 60.1905C56.2257 60.0542 56.2288 60.0512 56.3651 60.158C56.4478 60.223 56.5155 60.2906 56.5155 60.3085C56.5155 60.3792 56.4449 60.3336 56.3326 60.1905ZM63.9775 60.2822C64.0395 60.2574 64.1136 60.2604 64.1422 60.289C64.1708 60.3175 64.12 60.3379 64.0294 60.3341C63.9293 60.33 63.9089 60.3096 63.9775 60.2822ZM16.7933 60.0186C16.6864 59.8823 16.6894 59.8792 16.8258 59.9862C16.9689 60.0984 17.0145 60.169 16.9437 60.169C16.9259 60.169 16.8582 60.1013 16.7933 60.0186ZM41.5093 58.5359C41.5093 57.614 41.522 57.2369 41.5374 57.6978C41.5529 58.1587 41.5529 58.913 41.5374 59.3739C41.522 59.8349 41.5093 59.4577 41.5093 58.5359ZM43.6589 58.321C43.6589 57.2809 43.6713 56.8673 43.6865 57.4017C43.7016 57.9361 43.7015 58.7871 43.6864 59.2928C43.6712 59.7983 43.6589 59.3611 43.6589 58.321H43.6589ZM51.2722 60.1352C51.2722 60.1166 51.3322 60.0784 51.4057 60.0502C51.4821 60.0209 51.5166 60.0353 51.4865 60.084C51.436 60.1657 51.2722 60.2048 51.2722 60.1352ZM11.2172 60.0506C11.2172 60.0327 11.2849 59.965 11.3676 59.9002C11.5039 59.7932 11.507 59.7963 11.4001 59.9326C11.2878 60.0758 11.2172 60.1214 11.2172 60.0506ZM12.8007 58.3209C12.8008 57.3282 12.8133 56.9338 12.8286 57.4446C12.8438 57.9554 12.8437 58.7676 12.8285 59.2496C12.8132 59.7317 12.8008 59.3137 12.8008 58.3209H12.8007ZM39.9262 60.0506C39.9262 60.0327 39.9939 59.965 40.0766 59.9002C40.2129 59.7932 40.216 59.7963 40.109 59.9326C39.9967 60.0758 39.9262 60.1214 39.9262 60.0506H39.9262ZM47.9565 58.278C47.9565 57.2616 47.969 56.8458 47.9841 57.3539C47.9993 57.8622 47.9993 58.6938 47.9841 59.202C47.969 59.7102 47.9565 59.2944 47.9565 58.278ZM53.1996 58.3209C53.1997 57.3282 53.2122 56.9338 53.2274 57.4446C53.2426 57.9554 53.2426 58.7676 53.2274 59.2496C53.2121 59.7317 53.1996 59.3137 53.1997 58.3209H53.1996ZM55.3485 58.3209C55.3485 57.3282 55.3611 56.9338 55.3763 57.4446C55.3915 57.9554 55.3915 58.7676 55.3763 59.2496C55.3609 59.7317 55.3486 59.3137 55.3486 58.3209H55.3485ZM58.4413 59.8897L58.2776 59.6963L58.471 59.86C58.5773 59.9501 58.6644 60.0371 58.6644 60.0534C58.6644 60.1222 58.5952 60.0714 58.4413 59.8897ZM66.1263 60.0243C66.1884 59.9995 66.2625 60.0025 66.2911 60.0311C66.3197 60.0597 66.2689 60.08 66.1782 60.0762C66.0781 60.0721 66.0578 60.0517 66.1263 60.0243ZM69.6236 59.9111C69.7092 59.8166 69.7985 59.7392 69.8222 59.7392C69.8459 59.7392 69.7951 59.8166 69.7096 59.9111C69.624 60.0057 69.5347 60.0831 69.511 60.0831C69.4874 60.0831 69.5381 60.0057 69.6236 59.9111ZM51.745 59.8252C51.8306 59.7306 51.9199 59.6533 51.9436 59.6533C51.9672 59.6533 51.9165 59.7306 51.8309 59.8252C51.7454 59.9197 51.6561 59.9971 51.6324 59.9971C51.6087 59.9971 51.6595 59.9197 51.745 59.8252ZM5.31731 59.1375C5.31731 58.6884 5.33175 58.5047 5.34948 58.7293C5.3672 58.9538 5.3672 59.3213 5.34948 59.5458C5.33175 59.7704 5.31724 59.5867 5.31724 59.1375H5.31731ZM36.4414 59.7335C36.4103 59.6831 36.4033 59.6234 36.4258 59.6009C36.4483 59.5783 36.4896 59.6196 36.5176 59.6925C36.5758 59.844 36.5262 59.8706 36.4414 59.7335ZM56.1853 59.6533C56.1853 59.5351 56.2047 59.4868 56.2286 59.5458C56.2524 59.6049 56.2524 59.7016 56.2286 59.7607C56.2047 59.8198 56.1853 59.7714 56.1853 59.6533ZM54.1444 58.192C54.1444 57.3175 54.1572 56.9597 54.1728 57.3969C54.1884 57.8342 54.1884 58.5498 54.1728 58.9871C54.1572 59.4244 54.1444 59.0666 54.1444 58.192ZM60.9742 59.5888C60.8673 59.4525 60.8703 59.4494 61.0066 59.5564C61.0894 59.6212 61.1571 59.6889 61.1571 59.7068C61.1571 59.7775 61.0865 59.732 60.9742 59.5888ZM67.8411 59.6784C67.948 59.6578 68.1027 59.6587 68.1849 59.6801C68.2671 59.7017 68.1796 59.7185 67.9905 59.7175C67.8014 59.7166 67.7341 59.699 67.8411 59.6784ZM9.22409 59.5946C9.28617 59.5697 9.36031 59.5727 9.38887 59.6013C9.41743 59.6299 9.36663 59.6502 9.27605 59.6464C9.17594 59.6424 9.1555 59.6219 9.22409 59.5945V59.5946ZM22.0045 59.3954C21.9312 59.2536 21.8906 59.1375 21.9142 59.1375C21.9378 59.1375 22.0172 59.2536 22.0905 59.3954C22.1638 59.5372 22.2045 59.6533 22.1808 59.6533C22.1573 59.6533 22.0779 59.5372 22.0045 59.3954ZM23.2853 58.4069C23.2853 57.6978 23.2987 57.4191 23.3149 57.7877C23.331 58.1562 23.3309 58.7364 23.3146 59.077C23.2983 59.4176 23.2851 59.1161 23.2852 58.4069H23.2853ZM24.2342 59.5419C24.2107 59.4806 24.2034 58.8714 24.218 58.1881L24.2445 56.9457L24.2634 58.2527L24.2824 59.5598L24.9055 59.5894L25.5287 59.6191L24.9028 59.6362C24.4567 59.6484 24.2647 59.6213 24.2342 59.5419ZM45.8083 59.5889C46.5821 59.5717 47.0536 59.5251 47.1406 59.4574C47.2593 59.3649 47.2613 59.3703 47.1574 59.5029C47.0536 59.6352 46.8932 59.651 45.8251 59.6344L44.6107 59.6155L45.8083 59.5889ZM48.9028 59.5406C48.879 59.4786 48.8719 58.9854 48.8872 58.4446L48.9147 57.4614L48.9331 58.5106L48.9514 59.5598L49.5746 59.5894L50.1978 59.6191L49.5719 59.6362C49.1223 59.6484 48.9339 59.6215 48.9028 59.5406H48.9028ZM62.6022 59.5945C62.6642 59.5697 62.7384 59.5727 62.7669 59.6013C62.7955 59.6299 62.7447 59.6502 62.6541 59.6464C62.554 59.6424 62.5336 59.6219 62.6022 59.5945ZM31.5386 59.4514C31.5141 59.3875 31.5058 59.0689 31.5198 58.7431C31.5413 58.2498 31.571 58.1486 31.6977 58.1371C31.8043 58.1277 31.8107 58.1357 31.7191 58.1641C31.6177 58.1956 31.5885 58.3467 31.5885 58.8404V59.4762L32.6845 59.5031L33.7804 59.5299L32.6818 59.5486C31.8258 59.5632 31.5733 59.5417 31.5386 59.4513V59.4514ZM68.807 59.5348C68.807 59.517 68.8747 59.4493 68.9575 59.3844C69.0938 59.2775 69.0968 59.2806 68.9899 59.4169C68.8776 59.5601 68.807 59.6056 68.807 59.5348ZM37.4225 59.3309C37.3156 59.1946 37.3186 59.1916 37.455 59.2985C37.5981 59.4107 37.6437 59.4813 37.5729 59.4813C37.5551 59.4813 37.4874 59.4136 37.4225 59.3309ZM69.9313 59.3452C69.9354 59.2451 69.9558 59.2248 69.9832 59.2934C70.0081 59.3554 70.005 59.4295 69.9764 59.4581C69.9478 59.4866 69.9275 59.4359 69.9313 59.3452ZM26.2593 59.277C26.2593 59.2591 26.327 59.1914 26.4098 59.1266C26.5461 59.0196 26.5491 59.0227 26.4422 59.159C26.3299 59.3022 26.2593 59.3478 26.2593 59.277ZM39.373 59.1983C39.4053 59.1136 39.4534 59.0658 39.4798 59.0923C39.5062 59.1187 39.4799 59.1881 39.4211 59.2464C39.3362 59.3307 39.3264 59.3208 39.373 59.1983H39.373ZM57.0786 58.5403C56.6575 58.1172 56.2752 57.7944 56.229 57.8229C56.18 57.8532 56.173 57.8298 56.2121 57.7664C56.2588 57.6909 56.5234 57.9014 57.0849 58.4606C57.5282 58.902 57.8908 59.2735 57.8908 59.2863C57.8908 59.3476 57.7911 59.2561 57.0786 58.5403ZM61.7936 59.1161L61.6298 58.9227L61.8232 59.0864C62.005 59.2403 62.0558 59.3095 61.987 59.3095C61.9707 59.3095 61.8836 59.2224 61.7936 59.1161ZM66.4003 59.2327C66.4003 59.1748 66.3557 59.155 66.301 59.1887C66.2371 59.2282 66.2253 59.2121 66.2678 59.1433C66.3147 59.0675 66.3604 59.0632 66.4257 59.1286C66.4764 59.1792 66.4914 59.2471 66.4591 59.2794C66.4268 59.3117 66.4003 59.2907 66.4003 59.2327ZM11.6815 57.9341C11.6815 57.2014 11.6948 56.9016 11.7109 57.268C11.727 57.6344 11.727 58.2339 11.7109 58.6003C11.6948 58.9667 11.6815 58.6669 11.6815 57.9341ZM40.3759 58.9656C40.3759 58.8002 40.3936 58.7325 40.4152 58.8152C40.4368 58.8979 40.4368 59.0333 40.4152 59.1161C40.3936 59.1988 40.3759 59.1311 40.3759 58.9656ZM8.55938 59.0014C8.56351 58.9013 8.58388 58.8809 8.61128 58.9495C8.63616 59.0116 8.63307 59.0857 8.60451 59.1143C8.57595 59.1428 8.55564 59.092 8.55938 59.0014ZM35.4633 59.0014C35.4674 58.9013 35.4878 58.8809 35.5152 58.9495C35.5401 59.0116 35.537 59.0857 35.5085 59.1143C35.4799 59.1428 35.4595 59.092 35.4634 59.0014H35.4633ZM34.3559 58.8367C34.3576 58.6948 34.3769 58.6473 34.3987 58.7309C34.4205 58.8145 34.419 58.9305 34.3955 58.9888C34.3719 59.047 34.3541 58.9785 34.3558 58.8367H34.3559ZM37.2751 58.8797C37.2751 58.7615 37.2946 58.7132 37.3185 58.7722C37.3424 58.8313 37.3424 58.928 37.3185 58.9871C37.2946 59.0462 37.2751 58.9978 37.2751 58.8797ZM68.5331 58.821C68.5951 58.7961 68.6693 58.7992 68.6978 58.8277C68.7264 58.8563 68.6756 58.8766 68.585 58.8728C68.4849 58.8688 68.4645 58.8483 68.5331 58.8209V58.821ZM19.7267 58.7449C20.0197 58.6795 20.6723 58.6682 20.6723 58.7286C20.6723 58.7644 20.4305 58.7892 20.135 58.7837C19.8396 58.7783 19.6558 58.7608 19.7267 58.7449ZM39.5298 57.7193C39.53 57.1047 39.5436 56.8646 39.5602 57.1856C39.5768 57.5067 39.5767 58.0095 39.56 58.3031C39.5432 58.5965 39.5297 58.3338 39.5298 57.7193ZM51.2789 58.6576C51.2831 58.5575 51.3034 58.5371 51.3308 58.6057C51.3556 58.6678 51.3526 58.7419 51.324 58.7705C51.2955 58.799 51.2752 58.7482 51.2789 58.6576ZM63.6728 58.7342C63.7564 58.7124 63.8724 58.7138 63.9306 58.7373C63.9888 58.7609 63.9204 58.7787 63.7785 58.7769C63.6367 58.7752 63.5891 58.7559 63.6728 58.7341V58.7342ZM67.5831 58.7329C67.69 58.7124 67.8447 58.7132 67.9269 58.7347C68.0091 58.7562 67.9216 58.773 67.7325 58.7721C67.5434 58.7711 67.4761 58.7535 67.5831 58.7329V58.7329ZM14.0336 58.6455C14.1881 58.6263 14.4202 58.6268 14.5493 58.6464C14.6785 58.666 14.5521 58.6816 14.2684 58.6812C13.9848 58.6805 13.8791 58.6646 14.0336 58.6455V58.6455ZM26.6198 58.4929C26.6215 58.351 26.6408 58.3034 26.6626 58.3871C26.6844 58.4707 26.6829 58.5867 26.6594 58.6449C26.6359 58.7031 26.618 58.6347 26.6197 58.4929H26.6198ZM60.5621 58.5717C60.5662 58.4715 60.5866 58.4512 60.614 58.5198C60.6388 58.5818 60.6357 58.6559 60.6072 58.6845C60.5786 58.713 60.5583 58.6623 60.5621 58.5717ZM10.7941 58.4857C10.7982 58.3856 10.8186 58.3652 10.846 58.4338C10.8708 58.4958 10.8678 58.57 10.8392 58.5985C10.8107 58.6271 10.7904 58.5763 10.7941 58.4857ZM19.4687 58.4499C19.5194 58.3554 19.5801 58.278 19.6037 58.278C19.6273 58.278 19.6053 58.3554 19.5547 58.4499C19.5041 58.5444 19.4434 58.6218 19.4197 58.6218C19.3961 58.6218 19.4181 58.5444 19.4687 58.4499ZM52.3252 58.3209C52.3262 58.1319 52.3438 58.0646 52.3643 58.1716C52.385 58.2785 52.3841 58.4332 52.3626 58.5154C52.3411 58.5976 52.3243 58.5101 52.3252 58.3209ZM34.156 58.3854C34.0492 58.2491 34.0522 58.246 34.1885 58.353C34.2713 58.4178 34.339 58.4855 34.339 58.5034C34.339 58.5742 34.2684 58.5286 34.1561 58.3854H34.156ZM40.3883 57.5903C40.3883 57.0467 40.4023 56.8243 40.4193 57.0961C40.4364 57.3679 40.4364 57.8128 40.4193 58.0846C40.4023 58.3564 40.3884 58.134 40.3884 57.5903H40.3883ZM56.1784 58.3998C56.1825 58.2996 56.2029 58.2792 56.2303 58.3478C56.2551 58.4099 56.252 58.484 56.2235 58.5126C56.1949 58.5412 56.1746 58.4904 56.1784 58.3998ZM58.3095 58.3854C58.2025 58.2491 58.2056 58.246 58.3419 58.353C58.4246 58.4178 58.4923 58.4855 58.4923 58.5034C58.4923 58.5742 58.4217 58.5286 58.3095 58.3854ZM65.1858 58.3425C65.2968 58.201 65.2421 58.192 64.2669 58.192C63.6966 58.192 63.2119 58.163 63.1899 58.1275C63.1367 58.0418 65.2203 58.0969 65.3079 58.1835C65.3454 58.2206 65.3067 58.3053 65.2219 58.3719C65.0815 58.4822 65.0783 58.4795 65.1858 58.3425ZM16.5463 58.3315C16.5463 58.3137 16.614 58.246 16.6967 58.181C16.833 58.0742 16.8361 58.0772 16.7291 58.2135C16.6169 58.3567 16.5463 58.4022 16.5463 58.3315ZM21.3168 58.1061C21.2434 57.9642 21.2028 57.8482 21.2264 57.8482C21.25 57.8482 21.3294 57.9642 21.4027 58.1061C21.4761 58.2479 21.5167 58.3639 21.4931 58.3639C21.4695 58.3639 21.3901 58.2479 21.3168 58.1061ZM5.30609 58.0201C5.30609 57.8547 5.32382 57.787 5.34541 57.8697C5.36701 57.9524 5.36701 58.0878 5.34541 58.1705C5.32382 58.2533 5.30609 58.1856 5.30609 58.0201ZM10.8173 57.5903C10.8173 57.1885 10.8321 57.0241 10.8502 57.225C10.8683 57.426 10.8683 57.7547 10.8502 57.9557C10.8321 58.1565 10.8173 57.9922 10.8173 57.5903ZM35.1474 58.0846L34.9837 57.8912L35.1771 58.055C35.3588 58.2088 35.4096 58.278 35.3408 58.278C35.3245 58.278 35.2375 58.191 35.1474 58.0846ZM26.6098 58.0559C26.6139 57.9558 26.6343 57.9354 26.6617 58.004C26.6866 58.066 26.6835 58.1402 26.6549 58.1687C26.6264 58.1973 26.6061 58.1466 26.6098 58.0559ZM60.5688 58.0201C60.5688 57.9019 60.5883 57.8536 60.6122 57.9127C60.636 57.9718 60.636 58.0685 60.6122 58.1275C60.5883 58.1867 60.5688 58.1383 60.5688 58.0201ZM68.6189 57.8755C68.681 57.8506 68.7551 57.8537 68.7836 57.8822C68.8122 57.9108 68.7615 57.9311 68.6708 57.9274C68.5707 57.9232 68.5503 57.9029 68.6189 57.8755ZM16.9036 57.6763C16.9036 57.5581 16.9232 57.5098 16.947 57.5689C16.9709 57.6279 16.9709 57.7246 16.947 57.7837C16.9232 57.8429 16.9036 57.7945 16.9036 57.6763ZM27.5553 57.7121C27.5595 57.612 27.5798 57.5916 27.6072 57.6602C27.6321 57.7222 27.629 57.7964 27.6005 57.8249C27.5719 57.8535 27.5516 57.8027 27.5553 57.7121ZM67.5875 57.7895C67.6495 57.7647 67.7236 57.7677 67.7522 57.7962C67.7807 57.8248 67.73 57.8452 67.6394 57.8414C67.5393 57.8373 67.5189 57.8169 67.5875 57.7895ZM5.27592 57.2654C5.24762 57.0945 5.26025 57.0143 5.30796 57.062C5.35122 57.1053 5.3723 57.2322 5.3547 57.3441C5.32762 57.5161 5.3155 57.504 5.27592 57.2653V57.2654ZM64.2998 57.3577C64.2532 57.2352 64.2631 57.2253 64.3479 57.3095C64.4067 57.3679 64.4331 57.4372 64.4066 57.4637C64.3801 57.4901 64.3321 57.4424 64.2998 57.3577ZM16.9036 57.2465C16.9036 57.1283 16.9232 57.08 16.947 57.1391C16.9709 57.1982 16.9709 57.2949 16.947 57.3539C16.9232 57.4131 16.9036 57.3647 16.9036 57.2465ZM31.5598 57.3611C31.4808 57.2822 31.4872 56.2347 31.5669 56.1851C31.6023 56.163 31.6186 56.4109 31.603 56.736L31.5745 57.3271L32.6344 57.3541L33.6943 57.3812L32.6556 57.3999C32.0845 57.4101 31.5913 57.3926 31.5597 57.3611H31.5598ZM48.8789 57.2465C48.8789 57.1283 48.8984 57.08 48.9223 57.1391C48.9461 57.1982 48.9461 57.2949 48.9223 57.3539C48.8984 57.4131 48.8789 57.3647 48.8789 57.2465ZM50.9173 57.268C50.8104 57.1317 50.8135 57.1286 50.9498 57.2356C51.0325 57.3004 51.1002 57.3681 51.1002 57.386C51.1002 57.4567 51.0296 57.4112 50.9173 57.268ZM65.9772 57.2823C65.9814 57.1822 66.0017 57.1618 66.0291 57.2304C66.0539 57.2924 66.0509 57.3666 66.0224 57.3951C65.9938 57.4237 65.9735 57.373 65.9772 57.2823ZM26.0013 57.1605C25.9239 57.1105 25.9133 57.0767 25.9748 57.0759C26.0311 57.0753 26.101 57.1133 26.1302 57.1605C26.1962 57.2673 26.1665 57.2673 26.0013 57.1605ZM60.8991 57.1337C60.8991 57.1188 61.0248 56.9931 61.1784 56.8543L61.4578 56.6019L61.2053 56.8812C60.97 57.1417 60.8991 57.2001 60.8991 57.1337ZM15.4987 57.0159C15.5607 56.9911 15.6349 56.9941 15.6634 57.0227C15.692 57.0512 15.6413 57.0716 15.5506 57.0678C15.4505 57.0637 15.4301 57.0433 15.4987 57.0159ZM19.2995 57.0316C19.2995 56.9844 19.337 56.8877 19.3828 56.8167C19.4286 56.7458 19.4661 56.7265 19.4661 56.7737C19.4661 56.8211 19.4286 56.9178 19.3828 56.9887C19.337 57.0596 19.2995 57.0789 19.2995 57.0316ZM50.2192 57.0177C50.2783 56.9938 50.375 56.9938 50.434 57.0177C50.4931 57.0415 50.4448 57.0611 50.3266 57.0611C50.2084 57.0611 50.16 57.0415 50.2192 57.0177ZM16.7667 56.842C16.72 56.7195 16.73 56.7095 16.8148 56.7938C16.8735 56.8521 16.9 56.9214 16.8735 56.9479C16.847 56.9744 16.7989 56.9267 16.7667 56.842ZM27.0676 56.7953L26.9038 56.6019L27.0972 56.7656C27.279 56.9195 27.3298 56.9887 27.261 56.9887C27.2447 56.9887 27.1576 56.9016 27.0676 56.7953ZM62.9405 56.9318C62.9996 56.9079 63.0963 56.9079 63.1554 56.9318C63.2145 56.9556 63.1661 56.9751 63.048 56.9751C62.9298 56.9751 62.8814 56.9556 62.9405 56.9318ZM67.4961 56.9318C67.5552 56.9079 67.6519 56.9079 67.711 56.9318C67.7701 56.9556 67.7218 56.9751 67.6036 56.9751C67.4854 56.9751 67.437 56.9556 67.4961 56.9318ZM67.9705 56.9291C68.0541 56.9073 68.1702 56.9087 68.2284 56.9323C68.2865 56.9559 68.2181 56.9737 68.0763 56.9719C67.9345 56.9702 67.8868 56.9509 67.9705 56.9291ZM35.3012 56.6878C35.303 56.546 35.3222 56.4983 35.344 56.582C35.3658 56.6656 35.3644 56.7817 35.3408 56.8399C35.3173 56.898 35.2995 56.8296 35.3012 56.6878ZM41.48 56.6807C41.4842 56.5805 41.5046 56.5601 41.5319 56.6287C41.5568 56.6908 41.5537 56.7649 41.5252 56.7935C41.4966 56.822 41.4763 56.7713 41.48 56.6807ZM51.605 56.6663C51.498 56.53 51.5011 56.527 51.6374 56.6339C51.7805 56.7462 51.8261 56.8167 51.7554 56.8167C51.7375 56.8167 51.6698 56.7491 51.605 56.6663ZM69.8452 56.6807C69.8493 56.5805 69.8697 56.5601 69.8971 56.6287C69.9219 56.6908 69.9189 56.7649 69.8903 56.7935C69.8618 56.822 69.8415 56.7712 69.8452 56.6807ZM7.45133 56.4671C7.36418 56.3274 7.36804 56.2883 7.47325 56.248C7.54365 56.221 7.65092 56.2188 7.71158 56.2431C7.77218 56.2675 7.73009 56.2905 7.61792 56.2943C7.44515 56.3 7.43064 56.3211 7.5227 56.432C7.58252 56.5041 7.61482 56.5796 7.59445 56.6C7.57414 56.6204 7.50968 56.5606 7.45133 56.4671ZM37.2614 56.5804C37.2614 56.5269 37.3042 56.4566 37.3566 56.4243C37.4229 56.3833 37.4164 56.343 37.3351 56.2916C37.2571 56.2422 37.2524 56.2173 37.3209 56.2164C37.4873 56.2142 37.5125 56.3343 37.3828 56.5118C37.316 56.603 37.2614 56.6339 37.2614 56.5804ZM58.6842 56.473C58.5845 56.3133 58.6916 56.1278 58.8132 56.2494C58.8416 56.2778 58.815 56.301 58.754 56.301C58.6644 56.301 58.6641 56.3262 58.7519 56.432C58.8117 56.5041 58.844 56.5796 58.8237 56.6C58.8033 56.6204 58.7405 56.5633 58.6842 56.473ZM64.853 56.5589C64.7755 56.5088 64.7649 56.4751 64.8264 56.4742C64.8827 56.4736 64.9527 56.5116 64.9819 56.5589C65.0479 56.6656 65.0181 56.6656 64.853 56.5589ZM8.62049 56.4598C8.71126 56.3438 8.71126 56.3096 8.62049 56.2732C8.5443 56.2426 8.54159 56.2265 8.61186 56.2219C8.78785 56.2102 8.81518 56.3622 8.65892 56.4847C8.5256 56.5892 8.52147 56.5865 8.62049 56.4598ZM36.1612 56.4557C36.0302 56.3247 36.0289 56.2151 36.1584 56.2151C36.2135 56.2151 36.2331 56.2405 36.2021 56.2716C36.171 56.3028 36.1886 56.3801 36.2413 56.4436C36.3601 56.5867 36.3012 56.5957 36.1612 56.4558V56.4557ZM59.7707 56.4514C59.8778 56.3149 59.8619 56.2998 59.5988 56.2881C59.3235 56.2759 59.3213 56.2734 59.5558 56.2385C59.8743 56.1909 60.0096 56.3215 59.8068 56.4809C59.6664 56.5911 59.6632 56.5885 59.7707 56.4514ZM10.572 56.3863C10.5123 56.2897 10.7641 56.1631 10.8483 56.2474C10.8778 56.2769 10.8352 56.301 10.7536 56.301C10.672 56.301 10.6291 56.3397 10.6583 56.387C10.6876 56.4342 10.6921 56.4729 10.6685 56.4729C10.6449 56.4729 10.6015 56.4339 10.572 56.3864V56.3863ZM11.8535 56.4002C11.8927 56.3369 11.843 56.2974 11.7164 56.291C11.5568 56.283 11.5491 56.273 11.6775 56.24C11.8773 56.1885 12.0504 56.3399 11.8989 56.4335C11.8301 56.476 11.814 56.4642 11.8535 56.4002ZM20.7581 56.3933C20.7581 56.3494 20.6904 56.2959 20.6077 56.2743C20.4945 56.2447 20.5051 56.2325 20.6506 56.225C20.7697 56.2189 20.844 56.2646 20.844 56.344C20.844 56.4149 20.8247 56.4729 20.8011 56.4729C20.7774 56.4729 20.7581 56.437 20.7581 56.3933ZM23.0355 56.3864C22.9681 56.2773 23.1906 56.1875 23.3962 56.2408C23.4958 56.2666 23.4649 56.2846 23.3102 56.2911C23.173 56.2967 23.0916 56.3382 23.1219 56.387C23.1511 56.4342 23.1556 56.4729 23.132 56.4729C23.1083 56.4729 23.0649 56.4339 23.0355 56.3864ZM40.5585 56.4067C40.59 56.3558 40.5476 56.2962 40.4643 56.2745C40.3289 56.2392 40.3283 56.2339 40.4582 56.225C40.6404 56.2125 40.7362 56.3542 40.6018 56.4373C40.5415 56.4746 40.5241 56.4623 40.5584 56.4067H40.5585ZM42.6214 56.4067C42.6529 56.3558 42.6105 56.2962 42.5272 56.2745C42.3919 56.2392 42.3912 56.2339 42.5211 56.225C42.7033 56.2125 42.7992 56.3542 42.6647 56.4373C42.6044 56.4746 42.5871 56.4623 42.6214 56.4067H42.6214ZM44.7698 56.4076C44.801 56.357 44.778 56.2961 44.7186 56.2722C44.6535 56.2459 44.6702 56.2259 44.761 56.2219C44.9311 56.2141 44.9621 56.3454 44.8122 56.4381C44.7535 56.4744 44.7362 56.4619 44.7698 56.4076ZM47.7087 56.3929C47.6515 56.3004 47.8197 56.1722 47.8969 56.2494C47.9253 56.2777 47.9011 56.301 47.8431 56.301C47.7852 56.301 47.7617 56.3396 47.7909 56.387C47.8202 56.4342 47.8247 56.4729 47.8011 56.4729C47.7774 56.4729 47.7359 56.4369 47.7087 56.3929V56.3929ZM16.0145 56.3282C16.0765 56.3034 16.1506 56.3064 16.1792 56.335C16.2077 56.3636 16.157 56.3839 16.0664 56.3801C15.9662 56.376 15.9459 56.3556 16.0145 56.3282ZM33.9092 56.301C33.8317 56.2509 33.8211 56.2172 33.8826 56.2164C33.9389 56.2157 34.0089 56.2538 34.0381 56.301C34.1041 56.4077 34.0743 56.4077 33.9092 56.301ZM39.3014 56.2904C39.3598 56.2316 39.4291 56.2052 39.4556 56.2317C39.482 56.2581 39.4343 56.3062 39.3496 56.3385C39.2271 56.3851 39.2172 56.3752 39.3014 56.2904ZM52.9683 56.2904C53.0266 56.2316 53.0959 56.2052 53.1224 56.2317C53.1488 56.2581 53.1011 56.3062 53.0164 56.3385C52.8939 56.3851 52.884 56.3752 52.9683 56.2904ZM54.2376 56.301C54.0974 56.2408 54.0926 56.226 54.211 56.2211C54.2909 56.2177 54.3803 56.2538 54.4095 56.301C54.4705 56.3998 54.4676 56.3998 54.2375 56.301H54.2376ZM56.5154 56.301C56.4379 56.2509 56.4273 56.2172 56.4888 56.2164C56.5451 56.2157 56.6151 56.2538 56.6443 56.301C56.7103 56.4077 56.6805 56.4077 56.5154 56.301ZM8.1925 56.2424C8.25458 56.2175 8.32872 56.2205 8.35728 56.2491C8.38584 56.2776 8.33504 56.298 8.24446 56.2942C8.14435 56.2901 8.12391 56.2697 8.1925 56.2423V56.2424ZM13.8655 56.2424C13.9276 56.2175 14.0018 56.2205 14.0303 56.2491C14.0589 56.2776 14.0081 56.298 13.9175 56.2942C13.8174 56.2901 13.7969 56.2697 13.8655 56.2423V56.2424ZM14.5478 56.2404C14.6542 56.2199 14.8283 56.2199 14.9346 56.2404C15.041 56.2609 14.954 56.2776 14.7412 56.2776C14.5285 56.2776 14.4415 56.2609 14.5478 56.2404V56.2404ZM19.3667 56.2424C19.4287 56.2175 19.5029 56.2205 19.5314 56.2491C19.56 56.2776 19.5092 56.298 19.4186 56.2942C19.3185 56.2901 19.2981 56.2697 19.3667 56.2423V56.2424ZM23.832 56.2402C23.9389 56.2197 24.0936 56.2204 24.1758 56.242C24.2579 56.2635 24.1705 56.2803 23.9814 56.2794C23.7923 56.2784 23.7251 56.2608 23.832 56.2402ZM36.8155 56.2423C36.8776 56.2175 36.9517 56.2205 36.9803 56.2491C37.0089 56.2776 36.9581 56.298 36.8675 56.2942C36.7674 56.2901 36.7469 56.2697 36.8155 56.2423ZM41.3658 56.2441C41.4249 56.2202 41.5216 56.2202 41.5807 56.2441C41.6398 56.2679 41.5914 56.2875 41.4732 56.2875C41.3551 56.2875 41.3067 56.2679 41.3658 56.2441ZM43.5593 56.2415C43.6429 56.2197 43.7589 56.2211 43.8172 56.2447C43.8754 56.2682 43.8069 56.2861 43.6651 56.2843C43.5232 56.2826 43.4757 56.2633 43.5593 56.2415ZM48.0757 56.2423C48.1377 56.2175 48.2118 56.2205 48.2404 56.2491C48.269 56.2777 48.2182 56.298 48.1276 56.2942C48.0274 56.2901 48.0071 56.2697 48.0757 56.2423ZM48.4587 56.2414C48.5423 56.2197 48.6584 56.2211 48.7166 56.2447C48.7748 56.2682 48.7063 56.2861 48.5645 56.2843C48.4227 56.2826 48.3751 56.2633 48.4587 56.2415V56.2414ZM55.2905 56.2404C55.3969 56.2199 55.571 56.2199 55.6773 56.2404C55.7837 56.2609 55.6967 56.2776 55.4839 56.2776C55.2712 56.2776 55.1842 56.2609 55.2905 56.2404ZM63.6335 56.2423C63.6956 56.2175 63.7697 56.2205 63.7983 56.2491C63.8268 56.2776 63.776 56.298 63.6855 56.2942C63.5853 56.2901 63.5649 56.2697 63.6335 56.2423ZM67.1577 56.2423C67.2197 56.2175 67.2938 56.2205 67.3224 56.2491C67.351 56.2776 67.3002 56.298 67.2096 56.2942C67.1095 56.2901 67.0891 56.2697 67.1577 56.2423ZM68.447 56.2423C68.509 56.2175 68.5832 56.2205 68.6117 56.2491C68.6403 56.2776 68.5895 56.298 68.4989 56.2942C68.3988 56.2901 68.3784 56.2697 68.447 56.2423ZM2.02269 55.7373C2.02418 55.6928 2.0822 55.5813 2.15163 55.4896C2.22099 55.3978 2.27656 55.3591 2.27508 55.4036C2.2736 55.4481 2.21558 55.5597 2.14615 55.6514C2.07672 55.7431 2.02115 55.7818 2.02269 55.7373ZM0.385057 55.5684C0.325297 55.4964 0.292999 55.4208 0.313306 55.4004C0.333677 55.3801 0.397563 55.439 0.455261 55.5314C0.580003 55.7313 0.538422 55.7532 0.385057 55.5684V55.5684ZM30.2974 55.5684C30.2376 55.4964 30.2054 55.4208 30.2257 55.4004C30.246 55.3801 30.3099 55.439 30.3676 55.5314C30.4924 55.7313 30.4508 55.7532 30.2974 55.5684V55.5684ZM34.6829 55.6134C34.6054 55.5634 34.5948 55.5296 34.6563 55.5288C34.7126 55.5281 34.7826 55.5662 34.8118 55.6134C34.8777 55.7202 34.848 55.7202 34.6829 55.6134ZM0.542613 55.3828C0.604629 55.3579 0.678765 55.361 0.707324 55.3895C0.735883 55.4181 0.685148 55.4384 0.594508 55.4347C0.494392 55.4305 0.474021 55.4102 0.542613 55.3828ZM1.05448 55.3792C1.209 55.36 1.44108 55.3605 1.57021 55.3801C1.6994 55.3996 1.57298 55.4153 1.28933 55.4149C1.00567 55.4142 0.899949 55.3983 1.05448 55.3792ZM5.22177 55.3785C5.39905 55.3599 5.68915 55.3599 5.86643 55.3785C6.04371 55.3971 5.89866 55.4122 5.5441 55.4122C5.18954 55.4122 5.04449 55.3971 5.22177 55.3785ZM30.5409 55.3824C30.6029 55.3576 30.6771 55.3606 30.7057 55.3892C30.7342 55.4178 30.6834 55.4381 30.5929 55.4343C30.4927 55.4302 30.4723 55.4098 30.5409 55.3824ZM31.6575 55.377C32.1446 55.3617 32.9182 55.3617 33.3766 55.377C33.835 55.3925 33.4365 55.405 32.491 55.4049C31.5455 55.4049 31.1704 55.3922 31.6575 55.3769V55.377ZM34.9407 52.9488L0 52.9055L34.9622 52.8842C58.2273 52.87 69.9244 52.8916 69.9244 52.9488C69.9244 52.996 69.9148 53.0251 69.9029 53.0134C69.8911 53.0017 54.1581 52.9726 34.9407 52.9488ZM14.1714 50.1123C14.1714 49.6159 14.1856 49.4128 14.203 49.661C14.2204 49.9092 14.2204 50.3153 14.203 50.5635C14.1856 50.8117 14.1714 50.6086 14.1714 50.1123ZM55.7586 50.2412C55.7604 50.0994 55.7796 50.0517 55.8014 50.1354C55.8232 50.219 55.8217 50.335 55.7982 50.3933C55.7747 50.4514 55.7568 50.383 55.7586 50.2412H55.7586ZM69.5874 50.32C69.5915 50.2199 69.6119 50.1995 69.6393 50.2681C69.6641 50.3301 69.6611 50.4042 69.6325 50.4328C69.604 50.4613 69.5837 50.4106 69.5874 50.32ZM56.1487 48.9842C56.207 48.9254 56.2764 48.899 56.3028 48.9255C56.3293 48.9519 56.2816 49 56.1968 49.0323C56.0743 49.0789 56.0645 49.0691 56.1487 48.9842V48.9842ZM2.129 48.8493C2.21268 48.8275 2.32872 48.829 2.38686 48.8525C2.44508 48.876 2.37668 48.8939 2.23485 48.8922C2.09303 48.8904 2.04539 48.8712 2.129 48.8494V48.8493ZM67.5821 48.8519C67.6412 48.8281 67.7379 48.8281 67.7971 48.8519C67.8561 48.8758 67.8078 48.8953 67.6896 48.8953C67.5714 48.8953 67.5231 48.8758 67.5821 48.8519ZM2.7774 48.7643C2.83948 48.7394 2.91362 48.7424 2.94218 48.771C2.97073 48.7996 2.91994 48.8199 2.82936 48.8161C2.72924 48.812 2.70881 48.7916 2.7774 48.7642V48.7643ZM67.0718 48.7643C67.1338 48.7394 67.208 48.7424 67.2365 48.771C67.2651 48.7996 67.2143 48.8199 67.1237 48.8161C67.0236 48.812 67.0032 48.7916 67.0718 48.7642V48.7643ZM12.9767 42.806C12.9767 39.7568 12.9875 38.5094 13.0007 40.034C13.0138 41.5586 13.0138 44.0535 13.0007 45.5781C12.9875 47.1027 12.9767 45.8553 12.9767 42.806ZM64.7562 47.8129C64.6492 47.6766 64.6523 47.6736 64.7886 47.7804C64.9318 47.8927 64.9773 47.9633 64.9066 47.9633C64.8887 47.9633 64.821 47.8956 64.7562 47.8129ZM5.24324 47.7055C5.32885 47.6109 5.4182 47.5335 5.44179 47.5335C5.46545 47.5335 5.41472 47.6109 5.32923 47.7055C5.24362 47.8 5.15427 47.8773 5.13068 47.8773C5.10702 47.8773 5.15769 47.8 5.24324 47.7055ZM5.71603 47.2432C5.71603 47.2254 5.78372 47.1577 5.86643 47.0928C6.00278 46.9859 6.00581 46.9889 5.89886 47.1253C5.78662 47.2684 5.71603 47.314 5.71603 47.2432ZM13.6431 40.6875C13.6674 38.5401 13.7092 36.7611 13.7361 36.7342C13.763 36.7073 14.1839 36.7266 14.6714 36.777C15.159 36.8274 15.8189 36.8925 16.138 36.9217L16.7182 36.9747V40.4863C16.7182 43.7562 16.7079 44.0009 16.5678 44.0426C16.4318 44.0832 14.3048 44.4813 13.8048 44.5596L13.5991 44.5919L13.6431 40.6875ZM54.7104 44.3183L53.2921 44.0483L53.2696 40.5047C53.2513 37.5974 53.2678 36.9611 53.3618 36.9611C53.4249 36.9611 54.0866 36.9003 54.8323 36.8261C55.5781 36.7518 56.1992 36.7035 56.2127 36.7186C56.2881 36.8034 56.29 44.555 56.2146 44.5706C56.1673 44.5803 55.4904 44.4668 54.7104 44.3183ZM18.6297 40.4208L18.6523 37.1759L18.9101 37.1901C19.052 37.1979 19.4682 37.2302 19.8352 37.262L20.5025 37.3198L20.4799 40.3413L20.4573 43.3628L19.6837 43.5109C19.2583 43.5925 18.8419 43.6605 18.7587 43.6623C18.6162 43.6654 18.6085 43.4717 18.6297 40.4208ZM50.2279 43.5165L49.4846 43.388L49.4271 42.0011C49.3955 41.2383 49.382 39.8793 49.3969 38.981L49.4242 37.3479L50.3267 37.2484C50.8231 37.1937 51.237 37.1563 51.2464 37.1654C51.256 37.1744 51.291 38.6407 51.3244 40.4237L51.3852 43.6656L51.1783 43.6552C51.0644 43.6496 50.6368 43.5871 50.2279 43.5165ZM7.52786 42.9279C7.53198 42.8277 7.55235 42.8073 7.57975 42.8759C7.60463 42.938 7.60154 43.0121 7.57298 43.0407C7.54442 43.0692 7.52412 43.0185 7.52786 42.9279ZM22.1334 40.3183C22.1334 38.1878 22.1579 37.5485 22.2409 37.5182C22.3 37.4967 22.5997 37.5075 22.907 37.5424L23.4657 37.6058L23.4885 40.2023L23.5112 42.7987L23.1876 42.8815C23.0097 42.927 22.6996 42.99 22.4987 43.0216L22.1334 43.079V40.3183ZM47.0174 42.9458L46.4157 42.8491V37.6058L47.0488 37.5369C47.397 37.499 47.6941 37.4803 47.7092 37.4954C47.7778 37.5639 47.7645 43.0144 47.6958 43.0276C47.6536 43.0358 47.3484 42.999 47.0174 42.9457V42.9458ZM24.8407 42.5622C24.8173 42.5388 24.798 41.4377 24.798 40.1155V37.7114L25.1968 37.7661C25.4162 37.7961 25.6482 37.8207 25.7126 37.8207C25.8082 37.8207 25.8295 38.2394 25.8295 40.1271V42.4335L25.3565 42.5193C25.0963 42.5664 24.8643 42.5858 24.8407 42.5623V42.5622ZM44.5677 42.5141L44.0949 42.4193L44.101 40.1641C44.1043 38.9237 44.1236 37.8925 44.1439 37.8726C44.1642 37.8527 44.3936 37.8232 44.6537 37.8071L45.1264 37.7777L45.1493 40.1358C45.1618 41.4327 45.1425 42.5197 45.1063 42.5514C45.07 42.5831 44.8277 42.5663 44.5677 42.5141ZM28.2766 42.357C28.2536 42.2967 28.2451 38.8436 28.2575 34.6833L28.2801 27.1193L28.3011 34.7478L28.3222 42.3763H30.986L31.0085 32.7494L31.0309 23.1223L31.0303 32.7708L31.0297 42.4193L29.6741 42.443C28.6368 42.4611 28.3087 42.4409 28.2766 42.357ZM38.9541 42.4071C38.9214 42.3744 38.8946 38.0094 38.8946 32.707V23.0665L39.131 22.858L39.3674 22.6497L39.174 22.8702L38.9806 23.0906V42.3764H41.6443L41.6669 34.7479L41.6896 27.1193L41.6889 34.7693L41.6882 42.4194L40.3508 42.443C39.6152 42.4559 38.9867 42.4397 38.9541 42.4071V42.4071ZM26.778 40.0985L26.7701 37.9926H27.6346V42.0984L27.4412 42.1502C27.3349 42.1787 27.1439 42.2026 27.0168 42.2032L26.7859 42.2044L26.7781 40.0985H26.778ZM42.4387 42.1152L42.2437 42.0368L42.2668 40.0362L42.2899 38.0356L42.6564 37.9866C42.858 37.9598 43.0417 37.9566 43.0647 37.9795C43.0877 38.0025 43.1065 38.9625 43.1065 40.1128V42.2044L42.8701 42.199C42.74 42.1959 42.5459 42.1583 42.4387 42.1152ZM27.0758 36.7138L26.8179 36.6587L26.795 34.5259L26.7719 32.393L26.9669 32.4531C27.0741 32.4862 27.2681 32.5674 27.3982 32.6335L27.6346 32.7537V34.7715C27.6346 37.005 27.6811 36.8431 27.0758 36.7138H27.0758ZM42.3193 36.7308C42.3022 36.6921 42.2905 36.5056 42.2932 36.3165C42.2961 36.1274 42.3061 35.2458 42.3156 34.3575L42.3329 32.7423L42.6981 32.5848C42.8991 32.4982 43.0901 32.4426 43.1225 32.4611C43.1697 32.4881 43.1246 36.6296 43.0767 36.6719C43.0077 36.7329 42.3431 36.7846 42.3193 36.7308ZM12.9759 32.7064C12.9759 30.4844 12.987 29.5631 13.0006 30.659C13.0142 31.755 13.0142 33.5729 13.0006 34.6989C12.9871 35.8249 12.9759 34.9283 12.9759 32.7064ZM25.0559 36.3686L24.841 36.3088L24.8182 33.9274C24.8056 32.6176 24.8249 31.5457 24.8612 31.5454C24.8973 31.5452 25.1293 31.6322 25.3768 31.7388L25.8265 31.9328L25.828 34.1891L25.8295 36.4454L25.5501 36.4368C25.3965 36.4321 25.1741 36.4014 25.0559 36.3685V36.3686ZM44.1379 34.1901V31.9127L44.5791 31.7294C44.8219 31.6285 45.0539 31.546 45.0949 31.546C45.189 31.546 45.194 36.2481 45.1 36.3062C45.0618 36.3298 44.8297 36.3758 44.5842 36.4083L44.1379 36.4676V34.1901ZM22.6495 35.9518C22.4842 35.9319 22.3004 35.8754 22.2411 35.8261C22.159 35.758 22.1333 35.1084 22.1333 33.097C22.1333 31.6451 22.1555 30.4351 22.1826 30.408C22.2097 30.3809 22.5191 30.4787 22.8702 30.6253L23.5087 30.8917V36.0156L23.2293 36.0019C23.0756 35.9943 22.8147 35.9718 22.6495 35.9518ZM46.3929 33.4788L46.4157 30.9216L47.0603 30.6377L47.705 30.3538L47.748 32.7292C47.7959 35.3791 47.779 35.8134 47.6258 35.8722C47.5677 35.8945 47.2613 35.9405 46.9451 35.9743L46.3701 36.0359L46.3929 33.4788ZM19.5977 35.405C19.3613 35.3639 19.0518 35.298 18.91 35.2587L18.6522 35.1871L18.6306 34.3765C18.6187 33.9307 18.638 32.4971 18.6736 31.1908L18.7382 28.8156L19.6192 29.2015L20.5002 29.5874V35.4999L20.2638 35.4899C20.1339 35.4843 19.8341 35.4462 19.5977 35.405ZM49.3811 32.5873V29.6747L49.5745 29.5482C49.6809 29.4785 50.058 29.2974 50.4126 29.1456C50.7671 28.9938 51.1056 28.8488 51.1647 28.8233C51.2495 28.7867 51.2721 29.4538 51.2721 31.9977V35.2185L50.563 35.3593C50.1729 35.4366 49.7475 35.5 49.6175 35.4999H49.3811V32.5873ZM15.128 34.6378C14.3716 34.5036 13.742 34.3912 13.7289 34.3882C13.6715 34.3746 13.7264 26.7324 13.7841 26.6967C13.8194 26.6748 14.2137 26.8208 14.6601 27.0211C15.1066 27.2214 15.7426 27.4982 16.0735 27.6363C16.4045 27.7742 16.7006 27.9236 16.7317 27.9681C16.7626 28.0126 16.7779 28.1686 16.7654 28.3148C16.7529 28.4609 16.7372 30.002 16.7304 31.7394C16.7209 34.2075 16.6947 34.8964 16.6108 34.89C16.5517 34.8854 15.8844 34.7719 15.128 34.6378ZM53.2173 34.7C53.1907 34.5983 53.1773 33.032 53.1875 31.2193L53.2061 27.9234L54.5814 27.3215C55.0721 27.1066 55.5629 26.892 56.0539 26.6778C56.1249 26.6473 56.1677 27.5752 56.2123 30.101C56.2458 32.0066 56.2601 33.7583 56.2439 33.9934L56.2145 34.4209L55.0111 34.6116C54.5198 34.6897 54.0283 34.7671 53.5367 34.8435C53.3134 34.8775 53.2571 34.8522 53.2173 34.7ZM27.1402 31.4624L26.7749 31.2965V29.1864C26.7749 28.0259 26.7999 27.0763 26.8305 27.0763C26.8611 27.0763 27.0545 27.2143 27.2603 27.3829L27.6345 27.6895V29.6607C27.6345 30.7449 27.6055 31.6311 27.57 31.63C27.5346 31.629 27.3412 31.5535 27.1402 31.4624ZM42.3329 29.6607V27.6895L42.707 27.3829C42.9128 27.2143 43.1074 27.0763 43.1394 27.0763C43.2157 27.0763 43.199 31.1423 43.1223 31.2491C43.0516 31.3474 42.5236 31.6319 42.4118 31.6319C42.3661 31.6319 42.3329 30.8016 42.3329 29.6607ZM25.3053 30.5104L24.8242 30.2671L24.7681 29.6042C24.6835 28.6034 24.7003 25.5291 24.7903 25.5291C24.8993 25.5291 25.7447 26.2058 25.793 26.3316C25.8147 26.3883 25.8222 27.4065 25.8095 28.5942L25.7865 30.7538L25.3053 30.5104ZM44.1379 28.4907C44.1379 27.2401 44.1669 26.2157 44.2023 26.2143C44.2378 26.213 44.4395 26.0583 44.6505 25.8705C44.8616 25.6828 45.0646 25.5291 45.1018 25.5291C45.139 25.5291 45.1694 26.5883 45.1694 27.883V30.2368L44.6537 30.5008L44.1379 30.7648L44.1379 28.4907ZM22.864 29.2529C22.5331 29.0837 22.2339 28.9019 22.1992 28.8488C22.0943 28.6887 22.1193 23.5521 22.225 23.5521C22.2753 23.5521 22.5826 23.7552 22.9078 24.0034L23.4992 24.4547L23.504 27.0119C23.5065 28.4183 23.4991 29.5671 23.4872 29.5647C23.4754 29.5625 23.195 29.4221 22.8641 29.2529H22.864ZM46.4248 29.5065C46.3962 29.4778 46.3727 28.3658 46.3727 27.0355C46.3727 25.231 46.4001 24.5814 46.4802 24.4786C46.5393 24.4028 46.8462 24.1448 47.1622 23.9054L47.737 23.4699L47.764 23.7044C47.7789 23.8334 47.7802 25.0624 47.7671 26.4355L47.7431 28.9321L47.1101 29.2454C46.7618 29.4176 46.4535 29.5351 46.4248 29.5064V29.5065ZM19.5717 27.5684L18.6963 27.1193L18.6957 23.9604C18.6955 22.223 18.7189 20.8016 18.7478 20.8016C18.7768 20.8016 19.0801 21.024 19.4219 21.2958C19.7636 21.5677 20.1663 21.8836 20.3167 21.9979L20.5901 22.2056L20.5397 25.0906C20.5119 26.6773 20.4797 27.985 20.4682 27.9966C20.4566 28.0081 20.0533 27.8154 19.5717 27.5684ZM49.3812 25.1053V22.1888L50.2622 21.5044C50.7468 21.128 51.1722 20.8375 51.2077 20.8589C51.2431 20.8802 51.2722 22.2984 51.2722 24.0104V27.1231L50.3686 27.5724C49.8716 27.8196 49.4461 28.0218 49.4231 28.0218C49.4001 28.0218 49.3812 26.7094 49.3812 25.1053V25.1053ZM12.9771 21.4892C12.9771 17.9672 12.9877 16.5264 13.0007 18.2874C13.0137 20.0484 13.0137 22.93 13.0007 24.6911C12.9877 26.452 12.9771 25.0112 12.9771 21.4892ZM27.8815 26.8399C27.7745 26.7036 27.7776 26.7006 27.9139 26.8075C27.9966 26.8724 28.0643 26.94 28.0643 26.9579C28.0643 27.0286 27.9937 26.9831 27.8815 26.8399ZM41.9031 26.9634C41.9031 26.9486 42.0288 26.8229 42.1824 26.6841L42.4618 26.4317L42.2093 26.711C41.974 26.9714 41.9031 27.0298 41.9031 26.9634ZM27.2842 26.3242L27.0758 26.0878L27.3122 26.2962C27.5332 26.491 27.588 26.5605 27.5206 26.5605C27.5052 26.5605 27.3988 26.4542 27.2842 26.3242ZM42.7197 26.2167C42.8052 26.1222 42.8946 26.0449 42.9182 26.0449C42.9418 26.0449 42.8912 26.1222 42.8056 26.2167C42.7201 26.3113 42.6307 26.3887 42.6071 26.3887C42.5834 26.3887 42.6341 26.3113 42.7197 26.2167ZM15.2336 25.3809L13.7958 24.6451V20.8896C13.7958 18.8241 13.8205 17.1094 13.8508 17.0791C13.9037 17.0263 14.5825 17.5262 16.095 18.7321L16.8041 19.2974V22.6661C16.8042 24.5188 16.7743 26.0531 16.7378 26.0757C16.7013 26.0982 16.0244 25.7856 15.2336 25.3809ZM53.1632 22.6532V19.2615L54.6029 18.1452L56.0427 17.0288L56.0981 17.7763C56.1285 18.1874 56.1575 19.897 56.1626 21.5754L56.1716 24.6271L54.7697 25.336C53.9987 25.7259 53.3218 26.0449 53.2655 26.0449C53.1882 26.0449 53.1632 25.219 53.1632 22.6532ZM26.6781 25.8085C26.5711 25.6721 26.5742 25.6691 26.7105 25.776C26.7933 25.8409 26.861 25.9086 26.861 25.9264C26.861 25.9972 26.7904 25.9516 26.6781 25.8085ZM43.1924 25.8405C43.1924 25.8226 43.2601 25.755 43.3428 25.69C43.4792 25.5832 43.4822 25.5862 43.3753 25.7225C43.263 25.8656 43.1924 25.9112 43.1924 25.8405ZM26.0764 25.2927C25.9695 25.1564 25.9725 25.1534 26.1088 25.2603C26.1916 25.3252 26.2592 25.3929 26.2592 25.4107C26.2592 25.4814 26.1887 25.4359 26.0764 25.2927ZM43.923 25.1853C44.0086 25.0908 44.098 25.0134 44.1216 25.0134C44.1452 25.0134 44.0945 25.0908 44.009 25.1853C43.9234 25.2798 43.834 25.3572 43.8104 25.3572C43.7868 25.3572 43.8375 25.2798 43.923 25.1853ZM25.4792 24.777L25.2708 24.5406L25.5072 24.749C25.6371 24.8636 25.7435 24.97 25.7435 24.9854C25.7435 25.0528 25.6739 24.9979 25.4792 24.777ZM44.5247 24.6695C44.6103 24.575 44.6996 24.4977 44.7233 24.4977C44.7469 24.4977 44.6962 24.575 44.6107 24.6695C44.5251 24.7641 44.4358 24.8415 44.4121 24.8415C44.3885 24.8415 44.4392 24.7641 44.5247 24.6695ZM24.8775 24.2613L24.6691 24.0249L24.9055 24.2333C25.1264 24.428 25.1812 24.4976 25.1139 24.4976C25.0984 24.4976 24.992 24.3912 24.8775 24.2613ZM45.1263 24.1538C45.2119 24.0593 45.3013 23.9819 45.3249 23.9819C45.3486 23.9819 45.2979 24.0593 45.2123 24.1538C45.1268 24.2484 45.0374 24.3257 45.0138 24.3257C44.9902 24.3257 45.0408 24.2484 45.1264 24.1538H45.1263ZM24.3171 23.7885L24.1534 23.5951L24.3468 23.7589C24.4532 23.8489 24.5402 23.936 24.5402 23.9523C24.5402 24.0211 24.471 23.9703 24.3171 23.7885ZM45.7281 23.6381C45.8137 23.5436 45.903 23.4662 45.9266 23.4662C45.9503 23.4662 45.8995 23.5436 45.8141 23.6381C45.7284 23.7327 45.6391 23.81 45.6155 23.81C45.5918 23.81 45.6425 23.7327 45.7281 23.6381ZM23.7154 23.2728L23.5517 23.0794L23.7451 23.2432C23.8514 23.3332 23.9385 23.4202 23.9385 23.4366C23.9385 23.5053 23.8693 23.4545 23.7154 23.2728ZM46.3298 23.1223C46.4153 23.0278 46.5047 22.9505 46.5283 22.9505C46.5519 22.9505 46.5013 23.0278 46.4157 23.1223C46.3302 23.2169 46.2408 23.2943 46.2172 23.2943C46.1935 23.2943 46.2442 23.2169 46.3298 23.1223ZM23.1539 22.8C23.047 22.6637 23.05 22.6607 23.1864 22.7676C23.3295 22.8799 23.3751 22.9505 23.3044 22.9505C23.2865 22.9505 23.2188 22.8828 23.1539 22.8ZM46.8885 22.6601C46.8885 22.6423 46.9561 22.5746 47.0389 22.5097C47.1752 22.4028 47.1783 22.4059 47.0713 22.5422C46.959 22.6853 46.8885 22.7309 46.8885 22.6601ZM39.4104 22.5742C39.4104 22.5563 39.4781 22.4886 39.5608 22.4238C39.6971 22.3168 39.7002 22.3199 39.5933 22.4562C39.481 22.5994 39.4104 22.6449 39.4104 22.5742ZM22.4663 22.1984C22.3594 22.062 22.3624 22.059 22.4987 22.1659C22.6418 22.2782 22.6874 22.3488 22.6167 22.3488C22.5988 22.3488 22.5312 22.2811 22.4663 22.1984ZM47.5331 22.0909C47.6187 21.9964 47.7081 21.919 47.7317 21.919C47.7553 21.919 47.7046 21.9964 47.6191 22.0909C47.5335 22.1855 47.4442 22.2628 47.4206 22.2628C47.3969 22.2628 47.4476 22.1855 47.5331 22.0909ZM39.8402 22.1444C39.8402 22.1265 39.9078 22.0588 39.9906 21.994C40.1269 21.8871 40.1299 21.8901 40.0231 22.0264C39.9108 22.1696 39.8402 22.2152 39.8402 22.1444ZM21.8244 21.6396L21.6607 21.4462L21.8541 21.61C21.9604 21.7 22.0475 21.7871 22.0475 21.8034C22.0475 21.8722 21.9783 21.8214 21.8244 21.6396ZM48.1348 21.5752C48.2204 21.4806 48.3097 21.4033 48.3334 21.4033C48.357 21.4033 48.3063 21.4806 48.2208 21.5752C48.1352 21.6697 48.0459 21.7471 48.0222 21.7471C47.9986 21.7471 48.0493 21.6697 48.1348 21.5752ZM28.0633 20.2214L26.732 18.8676L28.0858 20.1988C29.3435 21.4356 29.4785 21.5752 29.4171 21.5752C29.4047 21.5752 28.7955 20.966 28.0633 20.2214ZM21.2629 21.1669C21.156 21.0305 21.1591 21.0275 21.2953 21.1345C21.4385 21.2467 21.4841 21.3173 21.4133 21.3173C21.3955 21.3173 21.3278 21.2496 21.2629 21.1669ZM48.7795 21.0165C48.8905 20.8983 49.0007 20.8016 49.0243 20.8016C49.0479 20.8016 48.9764 20.8983 48.8654 21.0165C48.7544 21.1347 48.6442 21.2314 48.6206 21.2314C48.5969 21.2314 48.6684 21.1347 48.7795 21.0165ZM20.6657 20.6512L20.4573 20.4148L20.6937 20.6232C20.9146 20.8179 20.9695 20.8875 20.902 20.8875C20.8867 20.8875 20.7803 20.7811 20.6657 20.6512ZM49.3382 20.5437C49.4238 20.4492 49.5131 20.3718 49.5367 20.3718C49.5604 20.3718 49.5096 20.4492 49.4242 20.5437C49.3386 20.6383 49.2492 20.7156 49.2256 20.7156C49.202 20.7156 49.2526 20.6383 49.3382 20.5437ZM20.0194 20.0924L19.8556 19.899L20.049 20.0628C20.1554 20.1528 20.2424 20.2399 20.2424 20.2562C20.2424 20.325 20.1732 20.2742 20.0194 20.0924ZM49.9828 19.985C50.0939 19.8668 50.2041 19.7701 50.2277 19.7701C50.2513 19.7701 50.1798 19.8668 50.0688 19.985C49.9578 20.1032 49.8476 20.1999 49.8239 20.1999C49.8003 20.1999 49.8718 20.1032 49.9828 19.985ZM42.1179 19.942C42.2036 19.8475 42.2929 19.7701 42.3165 19.7701C42.3402 19.7701 42.2894 19.8475 42.2039 19.942C42.1183 20.0366 42.029 20.114 42.0054 20.114C41.9817 20.114 42.0324 20.0366 42.1179 19.942ZM19.4579 19.6197C19.3509 19.4834 19.354 19.4803 19.4903 19.5873C19.6335 19.6995 19.679 19.7701 19.6083 19.7701C19.5904 19.7701 19.5227 19.7024 19.4579 19.6197ZM44.3098 17.7502C45.3727 16.6865 46.2617 15.8162 46.2854 15.8162C46.309 15.8162 45.4587 16.6865 44.3958 17.7502C43.3329 18.8139 42.4439 19.6842 42.4202 19.6842C42.3966 19.6842 43.2469 18.8139 44.3098 17.7502ZM50.5846 19.4693C50.6956 19.3511 50.8057 19.2544 50.8294 19.2544C50.853 19.2544 50.7815 19.3511 50.6705 19.4693C50.5595 19.5875 50.4492 19.6842 50.4257 19.6842C50.402 19.6842 50.4735 19.5875 50.5846 19.4693ZM18.8562 19.104C18.7492 18.9676 18.7523 18.9646 18.8886 19.0715C19.0317 19.1838 19.0773 19.2544 19.0066 19.2544C18.9887 19.2544 18.921 19.1867 18.8562 19.104ZM51.1432 18.9965C51.2288 18.902 51.3182 18.8246 51.3418 18.8246C51.3654 18.8246 51.3147 18.902 51.2292 18.9965C51.1436 19.0911 51.0543 19.1684 51.0307 19.1684C51.007 19.1684 51.0577 19.0911 51.1432 18.9965ZM26.2982 18.4593L25.9584 18.094L26.3237 18.4338C26.6634 18.7498 26.7286 18.8246 26.6634 18.8246C26.6495 18.8246 26.4851 18.6603 26.2982 18.4593ZM18.2545 18.5882C18.1476 18.4519 18.1506 18.4489 18.287 18.5558C18.4301 18.6681 18.4756 18.7386 18.4049 18.7386C18.3871 18.7386 18.3194 18.671 18.2545 18.5882ZM51.8309 18.3948C51.9164 18.3003 52.0058 18.2229 52.0294 18.2229C52.0531 18.2229 52.0024 18.3003 51.9168 18.3948C51.8313 18.4894 51.7419 18.5668 51.7183 18.5668C51.6947 18.5668 51.7453 18.4894 51.8309 18.3948ZM17.6572 18.0725L17.4489 17.8361L17.6852 18.0445C17.9062 18.2393 17.961 18.3088 17.8936 18.3088C17.8782 18.3088 17.7718 18.2025 17.6572 18.0725ZM52.3466 17.965C52.4322 17.8705 52.5215 17.7932 52.5451 17.7932C52.5688 17.7932 52.5182 17.8705 52.4325 17.965C52.347 18.0596 52.2577 18.137 52.234 18.137C52.2104 18.137 52.2611 18.0596 52.3466 17.965H52.3466ZM17.0109 17.5138L16.8472 17.3204L17.0406 17.4841C17.2224 17.638 17.2731 17.7072 17.2043 17.7072C17.188 17.7072 17.101 17.6202 17.0109 17.5138ZM52.9053 17.4923C53.0164 17.3741 53.1265 17.2775 53.1502 17.2775C53.1738 17.2775 53.1023 17.3741 52.9913 17.4923C52.8803 17.6105 52.77 17.7072 52.7464 17.7072C52.7228 17.7072 52.7943 17.6105 52.9053 17.4923ZM16.4092 16.9981L16.2455 16.8047L16.4389 16.9684C16.6207 17.1223 16.6714 17.1915 16.6026 17.1915C16.5863 17.1915 16.4993 17.1044 16.4092 16.9981ZM53.55 16.9336C53.6356 16.8391 53.7249 16.7617 53.7486 16.7617C53.7722 16.7617 53.7215 16.8391 53.6359 16.9336C53.5504 17.0282 53.461 17.1055 53.4374 17.1055C53.4137 17.1055 53.4645 17.0282 53.55 16.9336ZM15.8076 16.4823L15.6438 16.2889L15.8372 16.4527C16.019 16.6065 16.0698 16.6757 16.001 16.6757C15.9847 16.6757 15.8976 16.5887 15.8076 16.4823ZM54.2376 16.3319C54.3232 16.2374 54.4126 16.16 54.4362 16.16C54.4598 16.16 54.4091 16.2374 54.3236 16.3319C54.238 16.4265 54.1486 16.5039 54.125 16.5039C54.1014 16.5039 54.1521 16.4265 54.2376 16.3319ZM15.2059 15.9666L15.0421 15.7732L15.2355 15.9369C15.4173 16.0908 15.468 16.16 15.3993 16.16C15.3829 16.16 15.2959 16.073 15.2059 15.9666ZM54.7963 15.8592C54.9073 15.741 55.0175 15.6443 55.0412 15.6443C55.0648 15.6443 54.9933 15.741 54.8823 15.8592C54.7713 15.9774 54.6611 16.0741 54.6374 16.0741C54.6138 16.0741 54.6853 15.9774 54.7963 15.8592ZM14.6042 15.4509L14.4404 15.2575L14.6338 15.4212C14.8156 15.5751 14.8664 15.6443 14.7976 15.6443C14.7813 15.6443 14.6943 15.5572 14.6042 15.4509ZM46.4587 15.6118C46.4587 15.594 46.5264 15.5263 46.6091 15.4614C46.7455 15.3545 46.7485 15.3575 46.6415 15.4939C46.5293 15.637 46.4587 15.6826 46.4587 15.6118ZM55.3121 15.4399C55.3121 15.422 55.3798 15.3544 55.4625 15.2895C55.5988 15.1826 55.6018 15.1856 55.495 15.3219C55.3827 15.4651 55.3121 15.5107 55.3121 15.4399ZM14.0025 14.9351L13.8388 14.7417L14.0322 14.9055C14.2139 15.0594 14.2647 15.1285 14.1959 15.1285C14.1796 15.1285 14.0926 15.0415 14.0025 14.9351ZM55.9137 14.9242C55.9137 14.9063 55.9814 14.8386 56.0642 14.7738C56.2005 14.6669 56.2036 14.6699 56.0966 14.8062C55.9843 14.9494 55.9137 14.995 55.9137 14.9242ZM20.9721 13.2161L19.5118 11.7333L20.9945 13.1936C22.3721 14.5503 22.5161 14.6988 22.4548 14.6988C22.4425 14.6988 21.7752 14.0316 20.9721 13.2161ZM13.4008 14.4194L13.2371 14.226L13.4305 14.3897C13.6122 14.5436 13.663 14.6128 13.5942 14.6128C13.5779 14.6128 13.4909 14.5258 13.4008 14.4194ZM56.6203 14.3092C56.7488 14.1739 56.8694 14.0805 56.8883 14.1016C56.9072 14.1228 56.8019 14.2334 56.6545 14.3476L56.3865 14.555L56.6203 14.3092ZM50.7994 11.3466C51.7914 10.3538 52.6223 9.5415 52.6459 9.5415C52.6695 9.5415 51.8773 10.3538 50.8854 11.3466C49.8934 12.3393 49.0625 13.1516 49.0388 13.1516C49.0153 13.1516 49.8075 12.3393 50.7994 11.3466ZM15.9337 8.27364C15.8268 8.13729 15.8298 8.13426 15.9662 8.24121C16.0489 8.30606 16.1166 8.37375 16.1166 8.39161C16.1166 8.46233 16.046 8.41682 15.9337 8.27364ZM14.2247 6.55452L12.7213 5.02886L14.247 6.53215C15.0862 7.35893 15.7728 8.04549 15.7728 8.05781C15.7728 8.11905 15.6213 7.97206 14.2246 6.55452H14.2247ZM57.4609 4.77099C58.5712 3.65998 59.4988 2.751 59.5225 2.751C59.5461 2.751 58.6571 3.65998 57.5469 4.77099C56.4367 5.88194 55.509 6.79091 55.4853 6.79091C55.4617 6.79091 56.3507 5.88194 57.4609 4.77099ZM8.64299 1.07946C8.10341 0.538264 7.62423 0.118781 7.5782 0.147275C7.53192 0.175834 7.52192 0.154625 7.55583 0.0996994C7.58955 0.0450965 7.62514 0.000421307 7.63493 0.000421307C7.64467 0.000421307 8.11566 0.464578 8.68148 1.03188C9.2473 1.59919 9.69089 2.06334 9.66717 2.06334C9.64351 2.06334 9.18264 1.62059 8.64299 1.07946ZM62.1025 0.225924C62.1025 0.208003 62.1702 0.140313 62.253 0.0754602C62.3892 -0.0314249 62.3923 -0.0283951 62.2854 0.107887C62.1731 0.251066 62.1025 0.296644 62.1025 0.22586V0.225924Z" fill="#BA9D64"/>
<path d="M0.0432129 62.5761V62.1461H69.8387L69.8517 62.3825C69.859 62.5125 69.8682 62.6963 69.8722 62.7908C69.8796 62.9624 69.8178 62.9628 34.9614 62.9843L0.0432129 63.0059V62.5761ZM47.1465 60.427C47.1465 60.3724 46.4642 60.3401 45.277 60.3383C43.704 60.336 43.4313 60.3175 43.5579 60.2215C43.6927 60.1191 43.7083 59.9214 43.7083 58.3211C43.7083 56.7209 43.6927 56.5232 43.5579 56.4208C43.429 56.323 43.5113 56.3063 44.1338 56.3039C44.6987 56.3018 44.8372 56.3242 44.757 56.4044C44.6843 56.4771 44.6539 56.9717 44.6539 58.0805V59.6535H45.829C46.8018 59.6535 47.0311 59.629 47.1613 59.5112C47.3121 59.3748 47.3185 59.3922 47.3185 59.941C47.3185 60.265 47.2812 60.513 47.2325 60.513C47.1852 60.513 47.1465 60.4743 47.1465 60.427ZM8.76763 60.3131C7.74635 60.0504 7.60723 59.7567 7.60723 57.8639C7.60723 56.9235 7.57564 56.4759 7.50409 56.4044C7.42389 56.3242 7.55179 56.3012 8.07996 56.3012C8.60814 56.3012 8.7361 56.3242 8.65591 56.4044C8.52517 56.5351 8.51241 58.9878 8.64121 59.2284C8.80263 59.5301 9.21876 59.6748 9.81482 59.6369C10.2644 59.6083 10.4026 59.5617 10.5879 59.3764C10.8061 59.1583 10.8145 59.1119 10.8435 57.9624C10.8666 57.0482 10.8449 56.7194 10.7497 56.5376L10.6259 56.3012H11.9147L11.7809 56.4922C11.6738 56.6452 11.6471 56.9493 11.647 58.0179C11.6468 59.6106 11.5714 59.8425 10.9539 60.1492C10.4623 60.3933 9.39127 60.4736 8.76763 60.3131ZM37.574 60.3374C37.0139 60.1963 36.6593 59.9867 36.5063 59.7063C36.389 59.4914 36.3544 59.1502 36.3307 57.9773C36.3139 57.1425 36.2631 56.47 36.2123 56.4087C36.1423 56.3242 36.2676 56.3012 36.7956 56.3012C37.3186 56.3012 37.4451 56.3242 37.3649 56.4044C37.2381 56.5312 37.2205 58.8463 37.344 59.171C37.4745 59.5144 37.8874 59.6774 38.5237 59.6369C38.979 59.6079 39.1107 59.5626 39.3054 59.3681L39.5395 59.134V57.8006C39.5395 56.709 39.5162 56.4524 39.4106 56.3856C39.3226 56.3298 39.4941 56.3034 39.9498 56.3025L40.6179 56.3012L40.4863 56.5022C40.381 56.6627 40.3564 56.974 40.3634 58.0491C40.3735 59.5992 40.3057 59.8107 39.6902 60.1516C39.2801 60.3787 38.1362 60.4791 37.574 60.3374ZM62.3027 60.3374C61.2588 60.131 60.6285 59.3732 60.6228 58.3174C60.6162 57.1124 61.6226 56.2154 62.981 56.2154C63.3142 56.2154 64.8095 56.5165 64.9235 56.6066C64.9385 56.6184 64.8489 56.8292 64.7243 57.0749C64.5319 57.4548 64.4827 57.5016 64.3962 57.3871C64.1007 56.9957 62.8348 56.8242 62.3005 57.1032C62.1494 57.1821 61.9219 57.3828 61.795 57.5491C61.606 57.7969 61.5652 57.9387 61.5687 58.3359C61.5734 58.8565 61.7051 59.1118 62.1339 59.4319C62.4316 59.6543 63.4434 59.7214 63.9508 59.5525C64.2753 59.4444 64.2945 59.4187 64.2945 59.0952V58.7523L63.8648 58.7391C63.6193 58.7314 63.3521 58.7781 63.2416 58.8479C63.0485 58.9697 63.0482 58.969 63.0508 58.4308C63.0528 58.0225 63.0747 57.9281 63.1411 58.042C63.2169 58.1722 63.3691 58.1924 64.2731 58.1924C65.0854 58.1924 65.2945 58.2153 65.2143 58.2955C65.0878 58.422 65.0722 59.6536 65.1971 59.6536C65.4139 59.6536 65.2445 59.8209 64.8604 59.9862C63.9636 60.372 63.0864 60.4924 62.3027 60.3374ZM67.26 60.3467C67.0473 60.3076 66.7205 60.2118 66.5339 60.1338C66.3473 60.0558 66.1443 60.0114 66.0826 60.035C65.9293 60.0939 65.9415 59.9995 66.1465 59.5359L66.3223 59.1384L66.502 59.3058C66.7536 59.5403 67.7985 59.7644 68.3113 59.6939C68.8541 59.6192 69.1098 59.4138 69.0344 59.1132C68.9704 58.8584 68.8969 58.8373 67.6326 58.7122C66.4447 58.5945 66.0275 58.2955 66.0284 57.5624C66.0295 56.6902 66.6423 56.2556 67.8617 56.2625C68.3555 56.2653 68.7176 56.3167 68.9791 56.4211C69.1919 56.5061 69.4723 56.5956 69.6023 56.6201C69.8874 56.6739 69.8902 56.7044 69.6508 57.1528C69.4736 57.4848 69.3229 57.6078 69.3229 57.4205C69.3229 57.2484 68.6108 56.977 68.0475 56.9346C67.3902 56.8852 66.8922 57.0714 66.8476 57.3833C66.8062 57.6727 66.9999 57.7508 67.9919 57.8448C68.6533 57.9074 69.0438 57.9906 69.3194 58.1275C70.2752 58.6022 70.1686 59.7951 69.1333 60.2094C68.7057 60.3805 67.8042 60.4466 67.26 60.3467ZM0.387011 60.2553C0.387011 60.208 0.425691 60.1694 0.472945 60.1694C0.528128 60.1694 0.558943 59.3545 0.558943 57.8966C0.558943 56.4742 0.52671 55.604 0.472945 55.5707C0.259497 55.4388 0.449415 55.3989 1.28967 55.3989C1.78606 55.3989 2.19213 55.4201 2.19207 55.4461C2.19207 55.4721 2.14952 55.5359 2.09756 55.5879C2.02884 55.6566 2.1949 56.0484 2.70599 57.0234C3.09266 57.7608 3.43717 58.3643 3.47159 58.3643C3.50602 58.3643 3.70238 58.0451 3.90784 57.6551C4.11329 57.2651 4.43014 56.6879 4.612 56.3723C4.94117 55.801 5.02033 55.5276 4.85665 55.5276C4.8094 55.5276 4.77078 55.4986 4.77078 55.4631C4.77085 55.4277 5.17698 55.3987 5.67331 55.3987C6.1697 55.3987 6.57584 55.4277 6.57584 55.4631C6.57584 55.4986 6.53709 55.5276 6.48984 55.5276C6.43466 55.5276 6.40384 56.3585 6.40384 57.8484C6.40384 59.3383 6.43466 60.1692 6.48984 60.1692C6.53709 60.1692 6.57577 60.2079 6.57577 60.2551C6.57577 60.3057 6.27665 60.3411 5.85027 60.3411H5.1247L5.24867 60.1047C5.34369 59.9235 5.36948 59.5417 5.35923 58.4684C5.35182 57.6984 5.32126 57.0534 5.29135 57.0348C5.24119 57.0039 3.64971 59.7619 3.51994 60.1047C3.48861 60.1874 3.43807 60.2551 3.40777 60.255C3.35575 60.255 2.75318 59.1599 1.97727 57.6554C1.78819 57.2888 1.60446 56.9888 1.56894 56.9888C1.53348 56.9888 1.50447 57.6905 1.50447 58.548C1.50447 59.9322 1.5213 60.1201 1.65487 60.2215C1.7838 60.3194 1.70432 60.336 1.09614 60.3383C0.67885 60.3399 0.387011 60.3057 0.387011 60.2552V60.2553ZM12.7083 60.1841C12.8306 60.0489 12.8505 59.7877 12.8505 58.3213C12.8505 56.8279 12.8321 56.5954 12.7024 56.4521C12.5572 56.2917 12.5893 56.289 14.357 56.3164C16.3579 56.3474 16.5979 56.4045 16.8024 56.8983C16.9507 57.2561 16.9302 57.818 16.7595 58.0785C16.6817 58.1973 16.4472 58.37 16.2384 58.4623C16.0297 58.5546 15.8589 58.6525 15.8589 58.6797C15.8589 58.7776 16.6724 59.8735 16.9168 60.1049L17.1664 60.3412H16.34C15.5523 60.3412 15.5183 60.3337 15.6147 60.1794C15.7011 60.0411 15.647 59.9195 15.242 59.3414L14.7681 58.6651L14.2821 58.6393L13.796 58.6135V59.3742C13.796 59.8513 13.8345 60.1734 13.8991 60.2381C13.9793 60.3184 13.8427 60.3412 13.2841 60.3412C12.5938 60.3412 12.5715 60.3351 12.7083 60.1841ZM15.7908 57.8271C16.0287 57.6401 16.058 57.36 15.8605 57.1625C15.697 56.9991 15.5976 56.9856 14.7212 57.0077L13.7611 57.032L13.7663 57.2469C13.7692 57.3651 13.777 57.5682 13.7837 57.6981L13.796 57.9345H14.7251C15.3382 57.9345 15.7007 57.898 15.7908 57.8271ZM17.6775 60.2275C17.8489 60.097 19.469 56.8675 19.469 56.6561C19.469 56.5745 19.4226 56.4613 19.3659 56.4045C19.2857 56.3243 19.4284 56.3014 20.0084 56.3014H20.754L20.7028 56.5577C20.6604 56.7695 20.8031 57.1 21.5258 58.4639C22.0066 59.3712 22.4658 60.1636 22.5462 60.2247C22.6691 60.3181 22.5655 60.3363 21.8965 60.3385C21.1334 60.3412 21.1049 60.3345 21.2036 60.1765C21.2868 60.0434 21.2761 59.944 21.1484 59.6607L20.9901 59.3098H19.0711L18.9262 59.6135C18.7627 59.9565 18.7401 60.1694 18.8674 60.1694C18.9146 60.1694 18.9533 60.208 18.9533 60.2553C18.9533 60.3059 18.6615 60.3401 18.2442 60.3385C17.6553 60.3363 17.5592 60.3174 17.6775 60.2275ZM20.6724 58.7489C20.6724 58.6413 20.0624 57.5049 20.0052 57.5056C19.9417 57.5065 19.3812 58.6082 19.3825 58.7296C19.3827 58.765 19.6732 58.794 20.0278 58.794C20.3823 58.794 20.6724 58.7737 20.6724 58.7489ZM23.2041 60.12C23.372 59.7964 23.3694 56.8412 23.2009 56.5165L23.0894 56.3012H24.5299C26.2081 56.3012 26.6726 56.3993 27.1045 56.8449C27.7446 57.5053 27.8083 58.8725 27.2345 59.6328C26.8054 60.2013 26.4922 60.2866 24.6911 60.3251L23.0797 60.3596L23.2041 60.12ZM26.0439 59.4718C26.393 59.3009 26.6157 58.9576 26.6657 58.5132C26.7216 58.0177 26.5809 57.5978 26.254 57.2846C26.0078 57.0488 25.9488 57.0344 25.0955 57.0029L24.1965 56.9693V58.2541C24.1965 58.9607 24.2255 59.5689 24.261 59.6057C24.362 59.7103 25.7732 59.6043 26.0439 59.4717V59.4718ZM30.2993 60.2621C30.2993 60.2111 30.338 60.1693 30.3853 60.1693C30.4405 60.1693 30.4713 59.3545 30.4713 57.8966C30.4713 56.4742 30.4391 55.604 30.3853 55.5707C30.1488 55.4246 30.4562 55.4007 32.2977 55.4222C33.9226 55.4412 34.3568 55.4718 34.6201 55.5863C35.0563 55.776 35.2847 56.1648 35.2847 56.7174C35.2847 57.1003 35.2484 57.1919 34.9995 57.4379L34.7143 57.7196L35.064 58.0321C35.4055 58.3373 35.4137 58.3579 35.4137 58.9069C35.4137 59.5644 35.2567 59.8396 34.7212 60.1204C34.4114 60.283 34.2065 60.3007 32.3408 60.3266C30.9197 60.3463 30.2994 60.3266 30.2994 60.2621H30.2993ZM33.955 59.4432C34.2968 59.3004 34.4718 58.9915 34.3917 58.6726C34.2927 58.2781 34.0563 58.2071 32.7491 58.1806L31.5457 58.156L31.52 58.7458C31.5058 59.0702 31.5143 59.3877 31.5388 59.4515C31.6036 59.6204 33.5467 59.6136 33.955 59.443V59.4432ZM34.0724 57.212C34.2972 57.0086 34.3124 56.5535 34.1009 56.362C33.9781 56.2509 33.7152 56.2215 32.7471 56.2102L31.5457 56.196L31.5196 56.6903C31.4783 57.47 31.4266 57.4397 32.7407 57.4056C33.7257 57.38 33.9177 57.3521 34.0724 57.2119V57.212ZM41.409 60.2215C41.5438 60.1192 41.5595 59.9223 41.5595 58.3393C41.5595 56.8466 41.5384 56.5504 41.4244 56.4363C41.3016 56.3135 41.354 56.3012 42.0003 56.3012C42.5532 56.3012 42.6884 56.3242 42.6081 56.4044C42.4759 56.5365 42.4594 60.1692 42.591 60.1692C42.6382 60.1692 42.6769 60.2079 42.6769 60.2551C42.6769 60.3057 42.385 60.3399 41.9678 60.3383C41.3596 60.336 41.28 60.3194 41.409 60.2215ZM47.8556 60.1934C47.9885 60.0462 48.0061 59.8228 48.0061 58.2809C48.0061 56.719 47.9903 56.523 47.8556 56.4208C47.6205 56.2423 50.5826 56.2523 51.1093 56.4318C51.8509 56.6845 52.22 57.2133 52.2845 58.1155C52.355 59.0999 52.0358 59.7365 51.2724 60.1344C51.0204 60.2658 50.7065 60.2969 49.3384 60.3256C47.7269 60.3596 47.7072 60.3579 47.8557 60.1934H47.8556ZM50.8088 59.4404C51.572 58.9404 51.536 57.5449 50.7493 57.1377C50.5198 57.019 50.287 56.9909 49.6822 57.0088L48.9086 57.0318L48.8829 58.2264C48.8687 58.8835 48.8792 59.479 48.9064 59.5497C48.9758 59.7307 50.4993 59.6432 50.8088 59.4404ZM53.1071 60.1839C53.2294 60.0488 53.2493 59.7876 53.2493 58.3211C53.2493 56.8547 53.2294 56.5936 53.1071 56.4584C52.9703 56.3073 52.9928 56.3013 53.6873 56.3025C54.1761 56.3034 54.368 56.3302 54.2808 56.3853C54.0942 56.5031 54.0541 59.7581 54.2349 60.1066L54.3566 60.3411H53.6607C52.992 60.3411 52.9704 60.335 53.1071 60.1839ZM55.256 60.1839C55.3783 60.0488 55.3982 59.7876 55.3982 58.3211C55.3982 56.8547 55.3782 56.5936 55.256 56.4584C55.1192 56.3073 55.1427 56.3012 55.8669 56.3012C56.5392 56.3012 56.614 56.3168 56.5641 56.4468C56.5228 56.5546 56.793 56.8777 57.6066 57.6931C58.2107 58.2986 58.7346 58.7939 58.7707 58.7939C58.8845 58.7939 58.8488 56.5199 58.7333 56.4044C58.653 56.3242 58.7715 56.3012 59.2662 56.3012C59.7609 56.3012 59.8793 56.3242 59.7991 56.4044C59.667 56.5365 59.6504 60.1692 59.7819 60.1692C59.8292 60.1692 59.8679 60.2079 59.8679 60.2551C59.8679 60.3054 59.5778 60.3411 59.1697 60.3411C58.5465 60.3411 58.4835 60.3267 58.583 60.2068C58.6791 60.091 58.5307 59.9084 57.5034 58.8791C56.8483 58.2228 56.2891 57.7001 56.2607 57.7177C56.1552 57.7828 56.2299 60.0751 56.3419 60.21C56.4379 60.3256 56.3715 60.3411 55.7822 60.3411C55.14 60.3411 55.1193 60.3349 55.256 60.1839ZM0.100588 53.7513C0.0689994 53.7197 0.0432129 53.5262 0.0432129 53.3213V52.9487L34.9624 52.9704L69.8816 52.992L69.8796 53.3787L69.8775 53.7655L35.0177 53.7871C15.8448 53.799 0.132112 53.7829 0.100523 53.7513H0.100588ZM0.301078 49.9468V48.9217L1.28103 48.9156C4.81133 48.8934 6.43356 47.484 7.4382 43.5655C7.60401 42.919 7.60723 42.5015 7.60723 21.4795V0.0524416L8.70174 1.12245C10.2567 2.64263 21.7832 14.0125 25.8721 18.0594C27.7635 19.9313 29.688 21.8251 30.149 22.2678L30.987 23.0728V42.3765H28.3224V27.1733L25.9371 25.1329C23.813 23.316 22.9563 22.5788 22.0907 21.8229C21.9489 21.6991 19.8613 19.9082 17.4517 17.8431C13.8551 14.7608 13.0601 14.1163 13.0118 14.2433C12.9385 14.436 12.9178 47.9851 12.9908 48.3779C13.0368 48.6254 13.1168 48.6993 13.5918 48.9336L14.1398 49.2038V50.972H0.301142L0.301078 49.9468ZM55.8165 50.951C55.8102 50.9389 55.7959 50.5498 55.7846 50.0865L55.7642 49.2439L56.3548 48.9465L56.9454 48.6491V31.366C56.9454 21.8603 56.9143 14.0958 56.8764 14.1116C56.8383 14.1274 53.835 16.6931 50.2022 19.8133C46.5693 22.9335 43.303 25.7326 42.9435 26.0336C42.5841 26.3345 42.145 26.7116 41.9678 26.8714L41.6454 27.162V42.3765H38.9808V23.0615L40.7644 21.3179C41.7453 20.359 44.0191 18.1197 45.817 16.3416C47.615 14.5636 50.5547 11.6597 52.3496 9.88845C54.1445 8.11724 57.1216 5.17758 58.9654 3.35582L62.3176 0.0436096L62.3612 21.7043C62.3964 39.1682 62.4265 43.4316 62.5168 43.7088C62.5783 43.8979 62.7279 44.362 62.8492 44.7403C63.3875 46.4185 64.3278 47.6769 65.4711 48.2492C66.3723 48.7002 66.9664 48.8325 68.3775 48.896L69.6238 48.952V50.929L62.7259 50.951C58.9321 50.9631 55.8228 50.9631 55.8165 50.951Z" fill="#2C3178"/>
</svg>
